<svg xmlns="http://www.w3.org/2000/svg" viewBox="0 0 340.45 325.64"><defs><style>.cls-1{fill:none;stroke:#fff;stroke-miterlimit:10;stroke-width:0.24px;}</style></defs><title>Asset 1</title><g id="Layer_2" data-name="Layer 2"><g id="Layer_2-2" data-name="Layer 2"><path class="cls-1" d="M153.54,324.35c-45.23-6.06-52.41-67.13-110.82-78.55S-8.15,199.09,30,152.35-9.75,96.71,34.62,77.73s98.47-30.11,99.69-48.39,44.66-44,79.05-18.49S247.19,55,272.76,52.2s90.7,44.28,59.1,57.29-18.69,35.12-16.53,51,5.76,51.31-21.43,60.3,32.15,54.51-9.47,66.52-68.22-1.81-82.74,9.57S202.64,330.93,153.54,324.35Z"/><path class="cls-1" d="M263.05,47.47c27.86-2.38,83.8,45.28,62.46,57.42s-9.62,35.75-10.46,55.37,11.17,51.25-17.29,61.83S316.47,275,279.9,287.66s-64.19,3.74-81.63,11.44-5.48,26.72-51.84,21.47C103.51,315.79,89.82,256.24,41,244.31S-3.27,198.72,29.9,155.46s-37.51-55,4.64-73.17,82.35-32.37,87.63-50.41,48.94-39.81,80.75-18.51S234.74,49.83,263.05,47.47Z"/><path class="cls-1" d="M253.34,42.74c30.16-1.92,76.9,46.27,65.81,57.55s-.55,36.38-4.37,59.8,16.57,51.19-13.15,63.36,5.27,51.25-26.25,64.62-60.17,9.27-80.54,13.31-11.91,19.33-55.52,15.42c-40.61-3.51-60.8-61.54-100.1-74s-37.6-44.46-9.39-84.23S-5.46,104.2,34.47,86.84,100.7,52.22,110,34.42s53.22-35.58,82.45-18.53S222.3,44.63,253.34,42.74Z"/><path class="cls-1" d="M243.63,38c32.46-1.46,70,47.27,69.17,57.68s8.51,37,1.7,64.23,22,51.12-9,64.88-8.17,49.63-34.64,63.68-56.13,14.81-79.44,15.18-18.32,11.84-59.2,9.36c-38.29-2.32-65-58.73-94.74-71.71S6.5,198,29.75,161.7s-33.06-53.76,4.64-70.3S84.5,54.52,97.88,37s57.51-31.35,84.17-18.55S209.85,39.43,243.63,38Z"/><path class="cls-1" d="M233.92,33.28c34.76-1,63.09,48.26,72.52,57.81s17.59,37.64,7.78,68.66,27.38,51.06-4.86,66.41-21.61,48-43,62.73-52.1,20.34-78.34,17-24.75,4.44-62.88,3.32c-36-1.07-69.18-55.94-89.37-69.44s-24.35-42.19-6-75S-1.16,111.69,34.32,96s34-39.14,51.42-56.46,61.79-27.12,85.87-18.57S197.41,34.22,233.92,33.28Z"/><path class="cls-1" d="M224.22,28.55c37-.53,56.18,49.26,75.86,57.94s26.66,38.27,13.86,73.09,32.79,51-.71,67.93-35.06,46.37-51.44,61.79-48.07,25.88-77.24,18.91-31.17-3-66.56-2.74c-33.68.21-73.37-53.14-84-67.15s-17.72-41.07-4.37-70.39S1,115.43,34.24,100.51,52.1,59.13,73.6,42s66.07-22.89,87.57-18.6S185,29,224.22,28.55Z"/><path class="cls-1" d="M214.51,23.82c39.35-.07,49.28,50.25,79.22,58.07s35.73,38.9,19.94,77.52,38.18,50.93,3.42,69.45-48.49,44.75-59.82,60.84-44,31.42-76.15,20.79-37.6-10.34-70.24-8.8c-31.37,1.49-77.57-50.34-78.65-64.87s-11.09-39.94-2.69-65.77-26.4-51.87,4.62-66,1.74-43.64,27.3-60.49S131.82,25.92,150.74,26,172.52,23.82,214.51,23.82Z"/><path class="cls-1" d="M204.8,19.09c41.65.39,42.38,51.25,82.57,58.19s44.8,39.54,26,81.95,43.59,50.87,7.57,71S259,273.33,252.74,290.11s-40,37-75.05,22.65-44-17.7-73.93-14.84C74.71,300.7,22,250.37,30.48,235.32s-4.45-38.8-1-61.15-24.18-51.25,4.62-64.54S19.7,63.73,49.32,47.12s74.64-14.43,91-18.64S160.07,18.62,204.8,19.09Z"/><path class="cls-1" d="M195.09,14.36C239,15.21,230.57,66.6,281,72.68s53.87,40.17,32.09,86.38,49,50.81,11.72,72.51-75.38,41.49-76.62,58.95-36,42.49-74,24.52S123.81,290,96.65,294.14c-26.74,4.1-85.94-44.75-67.92-60.32s2.18-37.67.67-56.54-22-50.61,4.61-63.09S3.5,66,37.18,49.66,116.1,39.46,129.87,31,147.63,13.42,195.09,14.36Z"/><path class="cls-1" d="M185.38,9.63c46.25,1.31,28.58,53.23,89.28,58.45s62.94,40.8,38.17,90.81,54.4,50.74,15.86,74-88.82,39.85-85,58-32,48-72.86,26.39S114,284.93,89.54,290.37s-90.13-42-62.55-58,8.8-36.55,2.33-51.93-19.74-50,4.61-61.66S-12.7,68.33,25,52.2s83.2-6,94.39-18.68S135.18,8.22,185.38,9.63Z"/></g></g></svg>