<?xml version="1.0" encoding="utf-8"?>
<!-- Generator: Adobe Illustrator 23.0.0, SVG Export Plug-In . SVG Version: 6.00 Build 0)  -->
<svg version="1.1" id="Layer_1" xmlns="http://www.w3.org/2000/svg" xmlns:xlink="http://www.w3.org/1999/xlink" x="0px" y="0px"
	 viewBox="0 0 340.5 325.6" style="enable-background:new 0 0 340.5 325.6;" xml:space="preserve">
<style type="text/css">
	.st0{fill:none;stroke:#FFFFFF;stroke-width:0.5;stroke-miterlimit:10;}
</style>
<title>Asset 1</title>
<g>
	<g id="Layer_2-2">
		<path class="st0" d="M153.5,324.4c-45.2-6.1-52.4-67.1-110.8-78.6S-8.1,199.1,30,152.4s-39.8-55.6,4.6-74.6s98.5-30.1,99.7-48.4
			s44.7-44,79.1-18.5s33.8,44.1,59.4,41.3s90.7,44.3,59.1,57.3s-18.7,35.1-16.5,51s5.8,51.3-21.4,60.3s32.1,54.5-9.5,66.5
			s-68.2-1.8-82.7,9.6S202.6,330.9,153.5,324.4z"/>
		<path class="st0" d="M263,47.5c27.9-2.4,83.8,45.3,62.5,57.4s-9.6,35.8-10.5,55.4s11.2,51.2-17.3,61.8s18.7,52.9-17.9,65.6
			s-64.2,3.7-81.6,11.4s-5.5,26.7-51.8,21.5c-42.9-4.8-56.6-64.3-105.4-76.3s-44.3-45.6-11.1-88.8s-37.5-55,4.6-73.2
			s82.3-32.4,87.6-50.4S171-7.9,202.9,13.4S234.7,49.8,263,47.5z"/>
		<path class="st0" d="M253.3,42.7c30.2-1.9,76.9,46.3,65.8,57.5s-0.5,36.4-4.4,59.8s16.6,51.2-13.1,63.4s5.3,51.3-26.2,64.6
			s-60.2,9.3-80.5,13.3s-11.9,19.3-55.5,15.4c-40.6-3.5-60.8-61.5-100.1-74s-37.6-44.5-9.4-84.2s-35.3-54.4,4.6-71.7
			s66.2-34.6,75.5-52.4s53.2-35.6,82.4-18.5S222.3,44.6,253.3,42.7z"/>
		<path class="st0" d="M243.6,38c32.5-1.5,70,47.3,69.2,57.7s8.5,37,1.7,64.2s22,51.1-9,64.9s-8.2,49.6-34.6,63.7
			s-56.1,14.8-79.4,15.2s-18.3,11.8-59.2,9.4c-38.3-2.3-65-58.7-94.7-71.7s-31-43.3-7.7-79.6S-3.2,108,34.5,91.5s50-37,63.4-54.5
			S155.4,5.6,182,18.5S209.9,39.4,243.6,38z"/>
		<path class="st0" d="M233.9,33.3c34.8-1,63.1,48.3,72.5,57.8s17.6,37.6,7.8,68.7s27.4,51.1-4.9,66.4s-21.6,48-43,62.7
			s-52.1,20.3-78.3,17s-24.8,4.4-62.9,3.3c-36-1.1-69.2-55.9-89.4-69.4s-24.4-42.2-6-75S-1.2,111.7,34.3,96s34-39.1,51.4-56.5
			s61.8-27.1,85.9-18.6S197.4,34.2,233.9,33.3z"/>
		<path class="st0" d="M224.2,28.5c37-0.5,56.2,49.3,75.9,57.9s26.7,38.3,13.9,73.1s32.8,51-0.7,67.9s-35.1,46.4-51.4,61.8
			s-48.1,25.9-77.2,18.9s-31.2-3-66.6-2.7c-33.7,0.2-73.4-53.1-84-67.1s-17.7-41.1-4.4-70.4S1,115.4,34.2,100.5S52.1,59.1,73.6,42
			s66.1-22.9,87.6-18.6S185,29,224.2,28.5z"/>
		<path class="st0" d="M214.5,23.8c39.3-0.1,49.3,50.2,79.2,58.1s35.7,38.9,19.9,77.5s38.2,50.9,3.4,69.4s-48.5,44.7-59.8,60.8
			s-44,31.4-76.1,20.8s-37.6-10.3-70.2-8.8c-31.4,1.5-77.6-50.3-78.7-64.9s-11.1-39.9-2.7-65.8s-26.4-51.9,4.6-66
			s1.7-43.6,27.3-60.5s70.4-18.6,89.3-18.6S172.5,23.8,214.5,23.8z"/>
		<path class="st0" d="M204.8,19.1c41.7,0.4,42.4,51.2,82.6,58.2s44.8,39.5,26,81.9s43.6,50.9,7.6,71s-61.9,43.1-68.2,59.9
			s-40,37-75.1,22.6s-44-17.7-73.9-14.8c-29.1,2.8-81.8-47.5-73.3-62.6s-4.5-38.8-1-61.1S5.3,123,34.1,109.7s-14.4-46,15.2-62.6
			s74.6-14.4,91-18.6S160.1,18.6,204.8,19.1z"/>
		<path class="st0" d="M195.1,14.4c43.9,0.9,35.5,52.2,85.9,58.3s53.9,40.2,32.1,86.4s49,50.8,11.7,72.5s-75.4,41.5-76.6,59
			s-36,42.5-74,24.5s-50.4-25-77.5-20.9c-26.7,4.1-85.9-44.8-67.9-60.3s2.2-37.7,0.7-56.5s-22-50.6,4.6-63.1S3.5,66,37.2,49.7
			s78.9-10.2,92.7-18.7S147.6,13.4,195.1,14.4z"/>
		<path class="st0" d="M185.4,9.6c46.2,1.3,28.6,53.2,89.3,58.5s62.9,40.8,38.2,90.8s54.4,50.7,15.9,74s-88.8,39.8-85,58
			s-32,48-72.9,26.4s-56.8-32.4-81.3-26.9s-90.1-42-62.5-58s8.8-36.6,2.3-51.9s-19.7-50,4.6-61.7s-46.7-50.5-9-66.6
			s83.2-6,94.4-18.7S135.2,8.2,185.4,9.6z"/>
	</g>
</g>
</svg>
