<svg id="Layer_1" data-name="Layer 1" xmlns="http://www.w3.org/2000/svg" viewBox="0 0 1000 1000"><defs><style>.cls-1,.cls-10,.cls-2,.cls-3,.cls-4,.cls-5,.cls-6,.cls-7,.cls-8,.cls-9{fill:none;stroke:#fff;stroke-miterlimit:10;}.cls-1{stroke-width:1.02px;}.cls-2{stroke-width:1.02px;}.cls-3{stroke-width:1.02px;}.cls-4{stroke-width:1.01px;}.cls-5{stroke-width:1.01px;}.cls-6{stroke-width:1.01px;}.cls-7{stroke-width:1.01px;}.cls-8{stroke-width:1px;}.cls-9{stroke-width:1px;}</style></defs><title>HiggsField_Revised</title><path class="cls-1" d="M418.52,879.12c-99.87-13.91-115.2-157.55-244.14-184S62.42,585.64,147,475.36,59.76,344.75,158,299.74s217.8-71.62,220.65-114.64,56.89-66.6,174.89-44.6c94.9,17.69,74.26,104.16,130.76,97.3S835.41,353.64,765.5,384.5s58.37,64.77,63,102-38.84,126.35-99,147.72,70.56,128-21.49,156.59S557.31,787.11,525.14,814,526.93,894.22,418.52,879.12Z"/><path class="cls-2" d="M667.4,236.65c58.58-5.84,137.28,114.81,86.1,143.29s60.69,64.87,60.33,108-27.25,122.22-87.69,145.89,46.67,121.8-34.46,150.85S552,791,516,810.57s-8.68,64.82-109.45,52.49C313.33,851.78,287.83,714.59,178.2,687.89s-97.93-104.7-23.88-205.82S73.18,355.94,164.86,313.58s184.72-82.29,194.07-123.77,70.72-51.31,177.68-34.64C623,168.62,608.1,242.47,667.4,236.65Z"/><path class="cls-3" d="M650.54,235.51c60.66-4.82,123.4,113.78,91,139.88s63,64.95,57.67,114-15.66,118.08-76.39,144.05S745.57,749,675.36,778.54,546.6,795,506.81,807.16,487.66,856.56,394.52,847C308,838.36,272.35,707.61,182,680.61s-83.9-99.87-20.43-191.82-75-121.67,10.17-161.37,151.63-93,167.48-132.9,84.57-36,180.47-24.69C597.52,179,588.45,240.28,650.54,235.51Z"/><path class="cls-4" d="M633.68,234.36c62.73-3.79,109.53,112.76,95.82,136.47s65.33,65.05,55,120-4.07,114-65.07,142.23S718.34,742.42,659,772.4s-117.79,26.48-161.39,31.35S468,837.55,382.51,830.94c-79.8-6.17-125.65-130.31-196.66-157.61s-69.87-95-17-177.83S100,378.3,178.67,341.27s118.56-103.63,140.9-142S418,178.46,502.83,184.5C572.11,189.43,568.8,238.09,633.68,234.36Z"/><path class="cls-5" d="M616.81,233.22c64.81-2.77,95.66,111.72,100.69,133.06s67.66,65.13,52.33,126,7.53,109.8-53.75,140.39-25,103.14-73.36,133.6S535.9,802.8,488.48,800.34s-40.08,18.34-118,14.54c-73.12-3.57-129.14-121.23-180.84-148.83s-55.84-90.21-13.5-163.84-62.75-112.72,9.4-147.1,85.48-114.3,114.32-151.17,112.4-3.07,186.05-4.77C546.74,197.76,549.14,235.9,616.81,233.22Z"/><path class="cls-6" d="M600,232.08c66.89-1.75,81.79,110.69,105.55,129.64s70,65.23,49.67,132,19.11,105.67-42.44,138.56-48.87,96.93-86.34,127.85-95.84,46.59-147.07,36.8-50.56,2.9-120.81,1.89c-66.45-1-132.62-112.16-165-140.05s-41.81-85.39-10.05-149.84-56.61-108.26,9-140,52.4-125,87.74-160.3,126.38,9.6,188.85,5.18C521.44,210.13,529.49,233.71,600,232.08Z"/><path class="cls-7" d="M583.09,230.93c69-.72,67.92,109.66,110.41,126.24s72.3,65.31,47,138,30.71,101.53-31.12,136.72S636.62,722.6,610.07,754s-84.87,56.65-139.92,39.53-61-12.53-123.65-10.77c-59.77,1.68-136.1-103.08-149.18-131.27s-27.78-80.56-6.58-135.85-50.49-103.78,8.63-132.85,19.32-135.64,61.17-169.42S401,238,452.17,228.5C496.19,220.35,509.84,231.52,583.09,230.93Z"/><path class="cls-8" d="M566.23,229.79c71,.3,54,108.63,115.27,122.82s74.62,65.41,44.33,144S768.13,594,706,631.51,609.39,716,593.75,747.86,519.85,814.57,461,790.12,389.46,762.2,334.5,766.7c-53.1,4.34-139.58-94-133.36-122.49S187.39,568.48,198,522.35,153.66,423,206.28,396.63s-13.77-146.3,34.58-178.55,154.49,39.39,194.42,25.09C471,230.39,490.19,229.32,566.23,229.79Z"/><path class="cls-9" d="M549.36,228.64c73.12,1.34,40.18,107.6,120.14,119.42s76.94,65.49,41.67,150,53.89,93.25-8.5,133.06-120.52,78.27-125.24,110.6-62.93,76.77-125.61,45-82-43.27-129.32-36.07C276.08,757.69,179.43,665.72,205,636.93s.29-70.9.35-107.87-38.23-94.84,7.87-118.59-46.85-157,8-187.68,168.42,53.81,197.21,35C445.6,240.1,470.53,227.13,549.36,228.64Z"/><path class="cls-10" d="M532.5,227.5c75.19,2.36,26.3,106.57,125,116s79.27,65.58,39,156,65.48,89.12,2.82,131.23S554.91,702.79,561.11,735.59s-52,86.83-118.45,47.71-92.45-58.55-132.16-48.72S164,658.74,208.79,629.65s14.31-66.07,3.8-93.87-32.1-90.37,7.49-111.47S140.15,256.67,201.5,227.5s181.8,68,200,45S450.88,224.94,532.5,227.5Z"/></svg>