<?xml version="1.0" encoding="utf-8"?>
<!-- Generator: Adobe Illustrator 23.0.0, SVG Export Plug-In . SVG Version: 6.00 Build 0)  -->
<svg version="1.1" id="Layer_1" xmlns="http://www.w3.org/2000/svg" xmlns:xlink="http://www.w3.org/1999/xlink" x="0px" y="0px"
	 viewBox="0 0 490 258" style="enable-background:new 0 0 490 258;" xml:space="preserve">
<style type="text/css">
	.st0{opacity:0.1;}
	.st1{opacity:5.000000e-02;}
	.st2{fill:#EFEFEF;}
	.st3{opacity:0.26;}
	.st4{opacity:0.1;fill:#EFEFEF;enable-background:new    ;}
	.st5{opacity:0.2;fill:#EFEFEF;enable-background:new    ;}
	.st6{opacity:0.3;fill:#EFEFEF;enable-background:new    ;}
	.st7{opacity:0.4;fill:#EFEFEF;enable-background:new    ;}
	.st8{opacity:0.5;fill:#EFEFEF;enable-background:new    ;}
</style>
<title>Asset 1</title>
<g class="st0">
	<g>
		<g id="Legend">
			<g class="st1">
				<circle class="st2" cx="6" cy="186" r="6"/>
				<circle class="st2" cx="31" cy="186" r="6"/>
				<circle class="st2" cx="56" cy="186" r="6"/>
				<circle class="st2" cx="81" cy="186" r="6"/>
				<circle class="st2" cx="106" cy="186" r="6"/>
				<circle class="st2" cx="6" cy="208" r="6"/>
				<circle class="st2" cx="31" cy="208" r="6"/>
				<circle class="st2" cx="56" cy="208" r="6"/>
				<circle class="st2" cx="81" cy="208" r="6"/>
				<circle class="st2" cx="106" cy="208" r="6"/>
				<circle class="st2" cx="6" cy="230" r="6"/>
				<circle class="st2" cx="31" cy="230" r="6"/>
				<circle class="st2" cx="56" cy="230" r="6"/>
				<circle class="st2" cx="81" cy="230" r="6"/>
				<circle class="st2" cx="106" cy="230" r="6"/>
				<circle class="st2" cx="6" cy="252" r="6"/>
				<circle class="st2" cx="31" cy="252" r="6"/>
				<circle class="st2" cx="56" cy="252" r="6"/>
				<circle class="st2" cx="81" cy="252" r="6"/>
				<circle class="st2" cx="106" cy="252" r="6"/>
				<circle class="st2" cx="132" cy="186" r="6"/>
				<circle class="st2" cx="157" cy="186" r="6"/>
				<circle class="st2" cx="182" cy="186" r="6"/>
				<circle class="st2" cx="207" cy="186" r="6"/>
				<circle class="st2" cx="232" cy="186" r="6"/>
				<circle class="st2" cx="132" cy="208" r="6"/>
				<circle class="st2" cx="157" cy="208" r="6"/>
				<circle class="st2" cx="182" cy="208" r="6"/>
				<circle class="st2" cx="207" cy="208" r="6"/>
				<circle class="st2" cx="232" cy="208" r="6"/>
				<circle class="st2" cx="132" cy="230" r="6"/>
				<circle class="st2" cx="157" cy="230" r="6"/>
				<circle class="st2" cx="182" cy="230" r="6"/>
				<circle class="st2" cx="207" cy="230" r="6"/>
				<circle class="st2" cx="232" cy="230" r="6"/>
				<circle class="st2" cx="132" cy="252" r="6"/>
				<circle class="st2" cx="157" cy="252" r="6"/>
				<circle class="st2" cx="182" cy="252" r="6"/>
				<circle class="st2" cx="207" cy="252" r="6"/>
				<circle class="st2" cx="232" cy="252" r="6"/>
				<circle class="st2" cx="258" cy="186" r="6"/>
				<circle class="st2" cx="283" cy="186" r="6"/>
				<circle class="st2" cx="308" cy="186" r="6"/>
				<circle class="st2" cx="333" cy="186" r="6"/>
				<circle class="st2" cx="358" cy="186" r="6"/>
				<circle class="st2" cx="258" cy="208" r="6"/>
				<circle class="st2" cx="283" cy="208" r="6"/>
				<circle class="st2" cx="308" cy="208" r="6"/>
				<circle class="st2" cx="333" cy="208" r="6"/>
				<circle class="st2" cx="358" cy="208" r="6"/>
				<circle class="st2" cx="258" cy="230" r="6"/>
				<circle class="st2" cx="283" cy="230" r="6"/>
				<circle class="st2" cx="308" cy="230" r="6"/>
				<circle class="st2" cx="333" cy="230" r="6"/>
				<circle class="st2" cx="358" cy="230" r="6"/>
				<circle class="st2" cx="258" cy="252" r="6"/>
				<circle class="st2" cx="283" cy="252" r="6"/>
				<circle class="st2" cx="308" cy="252" r="6"/>
				<circle class="st2" cx="333" cy="252" r="6"/>
				<circle class="st2" cx="358" cy="252" r="6"/>
				<circle class="st2" cx="384" cy="186" r="6"/>
				<circle class="st2" cx="409" cy="186" r="6"/>
				<circle class="st2" cx="434" cy="186" r="6"/>
				<circle class="st2" cx="459" cy="186" r="6"/>
				<circle class="st2" cx="484" cy="186" r="6"/>
				<circle class="st2" cx="384" cy="208" r="6"/>
				<circle class="st2" cx="409" cy="208" r="6"/>
				<circle class="st2" cx="434" cy="208" r="6"/>
				<circle class="st2" cx="459" cy="208" r="6"/>
				<circle class="st2" cx="484" cy="208" r="6"/>
				<circle class="st2" cx="384" cy="230" r="6"/>
				<circle class="st2" cx="409" cy="230" r="6"/>
				<circle class="st2" cx="434" cy="230" r="6"/>
				<circle class="st2" cx="459" cy="230" r="6"/>
				<circle class="st2" cx="484" cy="230" r="6"/>
				<circle class="st2" cx="384" cy="252" r="6"/>
				<circle class="st2" cx="409" cy="252" r="6"/>
				<circle class="st2" cx="434" cy="252" r="6"/>
				<circle class="st2" cx="459" cy="252" r="6"/>
				<circle class="st2" cx="484" cy="252" r="6"/>
				<circle class="st2" cx="6" cy="96" r="6"/>
				<circle class="st2" cx="31" cy="96" r="6"/>
				<circle class="st2" cx="56" cy="96" r="6"/>
				<circle class="st2" cx="81" cy="96" r="6"/>
				<circle class="st2" cx="106" cy="96" r="6"/>
				<circle class="st2" cx="6" cy="118" r="6"/>
				<circle class="st2" cx="31" cy="118" r="6"/>
				<circle class="st2" cx="56" cy="118" r="6"/>
				<circle class="st2" cx="81" cy="118" r="6"/>
				<circle class="st2" cx="106" cy="118" r="6"/>
				<circle class="st2" cx="6" cy="140" r="6"/>
				<circle class="st2" cx="31" cy="140" r="6"/>
				<circle class="st2" cx="56" cy="140" r="6"/>
				<circle class="st2" cx="81" cy="140" r="6"/>
				<circle class="st2" cx="106" cy="140" r="6"/>
				<circle class="st2" cx="6" cy="162" r="6"/>
				<circle class="st2" cx="31" cy="162" r="6"/>
				<circle class="st2" cx="56" cy="162" r="6"/>
				<circle class="st2" cx="81" cy="162" r="6"/>
				<circle class="st2" cx="106" cy="162" r="6"/>
				<circle class="st2" cx="132" cy="96" r="6"/>
				<circle class="st2" cx="157" cy="96" r="6"/>
				<circle class="st2" cx="182" cy="96" r="6"/>
				<circle class="st2" cx="207" cy="96" r="6"/>
				<circle class="st2" cx="232" cy="96" r="6"/>
				<circle class="st2" cx="132" cy="118" r="6"/>
				<circle class="st2" cx="157" cy="118" r="6"/>
				<circle class="st2" cx="182" cy="118" r="6"/>
				<circle class="st2" cx="207" cy="118" r="6"/>
				<circle class="st2" cx="232" cy="118" r="6"/>
				<circle class="st2" cx="132" cy="140" r="6"/>
				<circle class="st2" cx="157" cy="140" r="6"/>
				<circle class="st2" cx="182" cy="140" r="6"/>
				<circle class="st2" cx="207" cy="140" r="6"/>
				<circle class="st2" cx="232" cy="140" r="6"/>
				<circle class="st2" cx="132" cy="162" r="6"/>
				<circle class="st2" cx="157" cy="162" r="6"/>
				<circle class="st2" cx="182" cy="162" r="6"/>
				<circle class="st2" cx="207" cy="162" r="6"/>
				<circle class="st2" cx="232" cy="162" r="6"/>
				<circle class="st2" cx="258" cy="96" r="6"/>
				<circle class="st2" cx="283" cy="96" r="6"/>
				<circle class="st2" cx="308" cy="96" r="6"/>
				<circle class="st2" cx="333" cy="96" r="6"/>
				<circle class="st2" cx="358" cy="96" r="6"/>
				<circle class="st2" cx="258" cy="118" r="6"/>
				<circle class="st2" cx="283" cy="118" r="6"/>
				<circle class="st2" cx="308" cy="118" r="6"/>
				<circle class="st2" cx="333" cy="118" r="6"/>
				<circle class="st2" cx="358" cy="118" r="6"/>
				<circle class="st2" cx="258" cy="140" r="6"/>
				<circle class="st2" cx="283" cy="140" r="6"/>
				<circle class="st2" cx="308" cy="140" r="6"/>
				<circle class="st2" cx="333" cy="140" r="6"/>
				<circle class="st2" cx="358" cy="140" r="6"/>
				<circle class="st2" cx="258" cy="162" r="6"/>
				<circle class="st2" cx="283" cy="162" r="6"/>
				<circle class="st2" cx="308" cy="162" r="6"/>
				<circle class="st2" cx="333" cy="162" r="6"/>
				<circle class="st2" cx="358" cy="162" r="6"/>
				<circle class="st2" cx="384" cy="96" r="6"/>
				<circle class="st2" cx="409" cy="96" r="6"/>
				<circle class="st2" cx="434" cy="96" r="6"/>
				<circle class="st2" cx="459" cy="96" r="6"/>
				<circle class="st2" cx="484" cy="96" r="6"/>
				<circle class="st2" cx="384" cy="118" r="6"/>
				<circle class="st2" cx="409" cy="118" r="6"/>
				<circle class="st2" cx="434" cy="118" r="6"/>
				<circle class="st2" cx="459" cy="118" r="6"/>
				<circle class="st2" cx="484" cy="118" r="6"/>
				<circle class="st2" cx="384" cy="140" r="6"/>
				<circle class="st2" cx="409" cy="140" r="6"/>
				<circle class="st2" cx="434" cy="140" r="6"/>
				<circle class="st2" cx="459" cy="140" r="6"/>
				<circle class="st2" cx="484" cy="140" r="6"/>
				<circle class="st2" cx="384" cy="162" r="6"/>
				<circle class="st2" cx="409" cy="162" r="6"/>
				<circle class="st2" cx="434" cy="162" r="6"/>
				<circle class="st2" cx="459" cy="162" r="6"/>
				<circle class="st2" cx="484" cy="162" r="6"/>
				<circle class="st2" cx="6" cy="6" r="6"/>
				<circle class="st2" cx="31" cy="6" r="6"/>
				<circle class="st2" cx="56" cy="6" r="6"/>
				<circle class="st2" cx="81" cy="6" r="6"/>
				<circle class="st2" cx="106" cy="6" r="6"/>
				<circle class="st2" cx="6" cy="28" r="6"/>
				<circle class="st2" cx="31" cy="28" r="6"/>
				<circle class="st2" cx="56" cy="28" r="6"/>
				<circle class="st2" cx="81" cy="28" r="6"/>
				<circle class="st2" cx="106" cy="28" r="6"/>
				<circle class="st2" cx="6" cy="50" r="6"/>
				<circle class="st2" cx="31" cy="50" r="6"/>
				<circle class="st2" cx="56" cy="50" r="6"/>
				<circle class="st2" cx="81" cy="50" r="6"/>
				<circle class="st2" cx="106" cy="50" r="6"/>
				<circle class="st2" cx="6" cy="72" r="6"/>
				<circle class="st2" cx="31" cy="72" r="6"/>
				<circle class="st2" cx="56" cy="72" r="6"/>
				<circle class="st2" cx="81" cy="72" r="6"/>
				<circle class="st2" cx="106" cy="72" r="6"/>
				<circle class="st2" cx="132" cy="6" r="6"/>
				<circle class="st2" cx="157" cy="6" r="6"/>
				<circle class="st2" cx="182" cy="6" r="6"/>
				<circle class="st2" cx="207" cy="6" r="6"/>
				<circle class="st2" cx="232" cy="6" r="6"/>
				<circle class="st2" cx="132" cy="28" r="6"/>
				<circle class="st2" cx="157" cy="28" r="6"/>
				<circle class="st2" cx="182" cy="28" r="6"/>
				<circle class="st2" cx="207" cy="28" r="6"/>
				<circle class="st2" cx="232" cy="28" r="6"/>
				<circle class="st2" cx="132" cy="50" r="6"/>
				<circle class="st2" cx="157" cy="50" r="6"/>
				<circle class="st2" cx="182" cy="50" r="6"/>
				<circle class="st2" cx="207" cy="50" r="6"/>
				<circle class="st2" cx="232" cy="50" r="6"/>
				<circle class="st2" cx="132" cy="72" r="6"/>
				<circle class="st2" cx="157" cy="72" r="6"/>
				<circle class="st2" cx="182" cy="72" r="6"/>
				<circle class="st2" cx="207" cy="72" r="6"/>
				<circle class="st2" cx="232" cy="72" r="6"/>
				<circle class="st2" cx="258" cy="6" r="6"/>
				<circle class="st2" cx="283" cy="6" r="6"/>
				<circle class="st2" cx="308" cy="6" r="6"/>
				<circle class="st2" cx="333" cy="6" r="6"/>
				<circle class="st2" cx="358" cy="6" r="6"/>
				<circle class="st2" cx="258" cy="28" r="6"/>
				<circle class="st2" cx="283" cy="28" r="6"/>
				<circle class="st2" cx="308" cy="28" r="6"/>
				<circle class="st2" cx="333" cy="28" r="6"/>
				<circle class="st2" cx="358" cy="28" r="6"/>
				<circle class="st2" cx="258" cy="50" r="6"/>
				<circle class="st2" cx="283" cy="50" r="6"/>
				<circle class="st2" cx="308" cy="50" r="6"/>
				<circle class="st2" cx="333" cy="50" r="6"/>
				<circle class="st2" cx="358" cy="50" r="6"/>
				<circle class="st2" cx="258" cy="72" r="6"/>
				<circle class="st2" cx="283" cy="72" r="6"/>
				<circle class="st2" cx="308" cy="72" r="6"/>
				<circle class="st2" cx="333" cy="72" r="6"/>
				<circle class="st2" cx="358" cy="72" r="6"/>
				<circle class="st2" cx="384" cy="6" r="6"/>
				<circle class="st2" cx="409" cy="6" r="6"/>
				<circle class="st2" cx="434" cy="6" r="6"/>
				<circle class="st2" cx="459" cy="6" r="6"/>
				<circle class="st2" cx="484" cy="6" r="6"/>
				<circle class="st2" cx="384" cy="28" r="6"/>
				<circle class="st2" cx="409" cy="28" r="6"/>
				<circle class="st2" cx="434" cy="28" r="6"/>
				<circle class="st2" cx="459" cy="28" r="6"/>
				<circle class="st2" cx="484" cy="28" r="6"/>
				<circle class="st2" cx="384" cy="50" r="6"/>
				<circle class="st2" cx="409" cy="50" r="6"/>
				<circle class="st2" cx="434" cy="50" r="6"/>
				<circle class="st2" cx="459" cy="50" r="6"/>
				<circle class="st2" cx="484" cy="50" r="6"/>
				<circle class="st2" cx="384" cy="72" r="6"/>
				<circle class="st2" cx="409" cy="72" r="6"/>
				<circle class="st2" cx="434" cy="72" r="6"/>
				<circle class="st2" cx="459" cy="72" r="6"/>
				<circle class="st2" cx="484" cy="72" r="6"/>
			</g>
			<g class="st3">
				<circle class="st4" cx="384" cy="186" r="6"/>
				<circle class="st5" cx="409" cy="186" r="6"/>
				<circle class="st6" cx="434" cy="186" r="6"/>
				<circle class="st7" cx="459" cy="186" r="6"/>
				<circle class="st8" cx="484" cy="186" r="6"/>
				<circle class="st4" cx="384" cy="208" r="6"/>
				<circle class="st5" cx="409" cy="208" r="6"/>
				<circle class="st6" cx="434" cy="208" r="6"/>
				<circle class="st7" cx="459" cy="208" r="6"/>
				<circle class="st8" cx="484" cy="208" r="6"/>
				<circle class="st4" cx="384" cy="230" r="6"/>
				<circle class="st5" cx="409" cy="230" r="6"/>
				<circle class="st6" cx="434" cy="230" r="6"/>
				<circle class="st7" cx="459" cy="230" r="6"/>
				<circle class="st8" cx="484" cy="230" r="6"/>
				<circle class="st4" cx="384" cy="252" r="6"/>
				<circle class="st5" cx="409" cy="252" r="6"/>
				<circle class="st6" cx="434" cy="252" r="6"/>
				<circle class="st7" cx="459" cy="252" r="6"/>
				<circle class="st8" cx="484" cy="252" r="6"/>
				<circle class="st4" cx="384" cy="96" r="6"/>
				<circle class="st5" cx="409" cy="96" r="6"/>
				<circle class="st6" cx="434" cy="96" r="6"/>
				<circle class="st7" cx="459" cy="96" r="6"/>
				<circle class="st8" cx="484" cy="96" r="6"/>
				<circle class="st4" cx="384" cy="118" r="6"/>
				<circle class="st5" cx="409" cy="118" r="6"/>
				<circle class="st6" cx="434" cy="118" r="6"/>
				<circle class="st7" cx="459" cy="118" r="6"/>
				<circle class="st8" cx="484" cy="118" r="6"/>
				<circle class="st4" cx="384" cy="140" r="6"/>
				<circle class="st5" cx="409" cy="140" r="6"/>
				<circle class="st6" cx="434" cy="140" r="6"/>
				<circle class="st7" cx="459" cy="140" r="6"/>
				<circle class="st8" cx="484" cy="140" r="6"/>
				<circle class="st4" cx="384" cy="162" r="6"/>
				<circle class="st5" cx="409" cy="162" r="6"/>
				<circle class="st6" cx="434" cy="162" r="6"/>
				<circle class="st7" cx="459" cy="162" r="6"/>
				<circle class="st8" cx="484" cy="162" r="6"/>
				<circle class="st4" cx="384" cy="6" r="6"/>
				<circle class="st5" cx="409" cy="6" r="6"/>
				<circle class="st6" cx="434" cy="6" r="6"/>
				<circle class="st7" cx="459" cy="6" r="6"/>
				<circle class="st8" cx="484" cy="6" r="6"/>
				<circle class="st4" cx="384" cy="28" r="6"/>
				<circle class="st5" cx="409" cy="28" r="6"/>
				<circle class="st6" cx="434" cy="28" r="6"/>
				<circle class="st7" cx="459" cy="28" r="6"/>
				<circle class="st8" cx="484" cy="28" r="6"/>
				<circle class="st4" cx="384" cy="50" r="6"/>
				<circle class="st5" cx="409" cy="50" r="6"/>
				<circle class="st6" cx="434" cy="50" r="6"/>
				<circle class="st7" cx="459" cy="50" r="6"/>
				<circle class="st8" cx="484" cy="50" r="6"/>
				<circle class="st4" cx="384" cy="72" r="6"/>
				<circle class="st5" cx="409" cy="72" r="6"/>
				<circle class="st6" cx="434" cy="72" r="6"/>
				<circle class="st7" cx="459" cy="72" r="6"/>
				<circle class="st8" cx="484" cy="72" r="6"/>
			</g>
		</g>
	</g>
</g>
</svg>
