<?xml version="1.0" encoding="utf-8"?>
<!-- Generator: Adobe Illustrator 23.0.0, SVG Export Plug-In . SVG Version: 6.00 Build 0)  -->
<svg version="1.1" id="Layer_1" xmlns="http://www.w3.org/2000/svg" xmlns:xlink="http://www.w3.org/1999/xlink" x="0px" y="0px"
	 viewBox="0 0 88.2 88" style="enable-background:new 0 0 88.2 88;" xml:space="preserve">
<style type="text/css">
	.st0{fill:#FFFFFF;}
</style>
<title>first_glyph_Set_random</title>
<path class="st0" d="M64.6,23.4l6.7-4.7C62.9,9.6,50.4,5.2,38.1,7.2h-0.2l-1.3,0.2L36,7.5l-0.9,0.3l-1,0.2l-0.5,0.1
	c-0.5,0.1-0.9,0.3-1.4,0.4h-0.1c-6.8,2.3-12.8,6.5-17.3,12.1l0,0c-0.3,0.4-0.6,0.8-0.9,1.2l-0.3,0.4c-0.2,0.3-0.4,0.6-0.6,0.9
	l-0.5,0.7l-0.4,0.6c-0.2,0.4-0.4,0.7-0.6,1.1l-0.1,0.3c-4,7.3-5.6,15.7-4.3,23.9c0,0.1,0,0.3,0.1,0.4c0.1,0.4,0.1,0.7,0.2,1.1
	s0.1,0.5,0.2,0.8s0.1,0.5,0.2,0.7c0.1,0.4,0.2,0.8,0.3,1.2l0.1,0.3c3.9,13.7,15.2,24,29.2,26.6c0.6,0.1,1.3,0.2,1.9,0.3h0.1
	c0.6,0.1,1.2,0.1,1.8,0.2h0.1c19,1.4,36-11.8,39.4-30.6c0.3-1.8,1.9-3.1,3.8-2.8c1.8,0.3,3.1,1.9,2.8,3.8c0,0.1,0,0.2,0,0.3
	c-2,11.4-8.5,21.5-17.9,28.1c-0.2-0.1-0.3-0.1-0.4,0C61.7,85.2,52.9,88,44,88c-2.6,0-5.3-0.2-7.8-0.7c-0.7-0.1-1.5-0.3-2.2-0.4
	l-0.2-0.1c-21-5-35.2-24.5-33.6-46c0,0,0,0,0-0.1c0-0.6,0.1-1.3,0.2-1.9c0-0.1,0-0.2,0-0.3c0.1-0.7,0.2-1.5,0.3-2.2
	c0.3-1.4,0.6-2.9,1-4.3C6.9,13.4,23.7,0.4,43,0c2.9-0.1,5.8,0.2,8.7,0.7c9.8,1.7,18.6,6.7,25.2,14.2l7.2-5c2-1.4,3.7-0.5,3.7,1.9
	l0.4,20.5c0,2.5-1.8,3.7-4.1,2.8l-19-7.6C62.8,26.7,62.6,24.8,64.6,23.4z"/>
</svg>
